<svg width="143" height="46" viewBox="0 0 143 46" fill="none" xmlns="http://www.w3.org/2000/svg">
<path d="M23.5089 40.8041L21.4546 35.538L41.292 36.5516L40.4021 44.9811L23.5089 40.8041Z" fill="#D22A36"/>
<path d="M28.2609 0L0.499878 13.0639L4.79301 32.747H10.4541L9.47428 18.6695L10.3452 18.4007L13.7485 32.747H19.6367L19.419 15.5956L20.2899 15.3269L23.2672 32.747H29.4963L30.9636 12.0314L31.8298 11.7627L33.3729 32.747H41.6089L44.5057 3.93662L28.2609 0Z" fill="#D22A36"/>
<path d="M114.001 42.8502L113.944 41.2095L119.643 41.1435L119.695 39.352L113.878 39.2813L113.821 37.6171L121.489 37.4379L121.55 35.4767H111.208L110.9 45.0047H121.735L121.659 43.0388L114.001 42.8502ZM62.4263 39.3473L62.3032 41.1294L65.1811 41.2237L65.1432 43.0341L59.1224 42.8596L59.3827 37.6312L67.6613 37.4426L67.543 35.4767H56.8504L55.8895 45.0047H68.0731L67.756 39.2577L62.4263 39.3473ZM137.895 40.0828L129.995 38.7533L130.028 37.7208L137.587 37.4379L137.398 35.472H127.68L127.183 40.4128L135.215 41.8036L135.253 42.7135L126.894 43.0388L126.691 45.0047H138.392L137.895 40.0828Z" fill="#D22A36"/>
<path d="M105.646 45L104.686 35.472H101.931L97.9784 40.0121L94.0213 35.472H91.2665L90.3057 45H93.5385L93.8462 38.8193L97.9689 43.0341L102.092 38.8193L102.404 45H105.646Z" fill="#D22A36"/>
<path d="M92.0569 0.584595H85.5865L84.9995 30.0503H92.8142L92.0569 0.584595Z" fill="#D22A36"/>
<path d="M112.112 23.6386L104.97 23.8696L104.733 6.53902L112.202 6.76532L112.112 23.6386ZM118.37 0.594025H98.1914L97.4056 30.0456H119.804L118.37 0.594025Z" fill="#D22A36"/>
<path d="M142.5 7.02933L141.781 0.57988H121.901L122.071 6.32215L128.428 6.53902L129.081 30.0409H136.915L134.572 6.75117L142.5 7.02933Z" fill="#D22A36"/>
<path d="M65.6402 6.60974L71.8787 6.4023L72.5887 12.2719L65.3893 15.6569L65.6402 6.60974ZM72.9248 30.0456H81.4164L75.8832 16.8214L80.2993 14.417L77.2795 0.57988H55.5961L54.8813 6.96333L59.733 6.80303L57.3947 30.0456H64.987L65.1905 22.6391L70.6623 19.6642L72.9248 30.0456Z" fill="#D22A36"/>
<path d="M77.057 40.7098L77.7149 37.5935L80.8721 37.4521L81.53 40.5778L77.057 40.7098ZM82.4672 45H85.7427L83.1535 35.472H75.4713L72.8822 45H76.1577L76.6641 42.5956L81.9797 42.6616L82.4672 45Z" fill="#D22A36"/>
</svg>
