<svg width="18" height="20" viewBox="0 0 18 20" fill="none" xmlns="http://www.w3.org/2000/svg">
<path d="M14.2964 10.5387C14.2875 8.90546 15.0262 7.6727 16.5215 6.76482C15.6849 5.56767 14.421 4.90902 12.7521 4.77996C11.1722 4.65534 9.44544 5.70118 8.81349 5.70118C8.14593 5.70118 6.615 4.82446 5.4134 4.82446C2.93009 4.86451 0.291016 6.80488 0.291016 10.7524C0.291016 11.9184 0.504634 13.1229 0.93187 14.3661C1.50152 15.9994 3.55759 20.0047 5.70268 19.9379C6.82417 19.9112 7.61634 19.1413 9.07606 19.1413C10.4913 19.1413 11.2256 19.9379 12.4762 19.9379C14.639 19.9068 16.4993 16.2664 17.0422 14.6286C14.1406 13.2624 14.2964 10.6233 14.2964 10.5387ZM11.7774 3.23122C12.9924 1.7893 12.8811 0.47644 12.8455 0.00469971C11.773 0.067005 10.5313 0.734562 9.82373 1.55788C9.04491 2.43906 8.58652 3.5294 8.68443 4.7577C9.84598 4.84671 10.9052 4.25036 11.7774 3.23122Z" fill="white"/>
</svg>
