<svg width="21" height="20" viewBox="0 0 21 20" fill="none" xmlns="http://www.w3.org/2000/svg">
<path d="M20.1054 10.1977C20.1054 9.37784 20.0389 8.77955 19.8949 8.15912H10.5328V11.8596H16.0282C15.9174 12.7792 15.3191 14.1641 13.9896 15.0947L13.9709 15.2186L16.931 17.5118L17.1361 17.5323C19.0196 15.7928 20.1054 13.2334 20.1054 10.1977Z" fill="#4285F4"/>
<path d="M10.5328 19.9476C13.2251 19.9476 15.4852 19.0612 17.1361 17.5323L13.9896 15.0948C13.1476 15.682 12.0174 16.0919 10.5328 16.0919C7.89596 16.0919 5.65795 14.3525 4.86016 11.9483L4.74322 11.9582L1.66525 14.3403L1.625 14.4522C3.26473 17.7095 6.63286 19.9476 10.5328 19.9476Z" fill="#34A853"/>
<path d="M4.86015 11.9483C4.64965 11.3278 4.52782 10.663 4.52782 9.97612C4.52782 9.28915 4.64965 8.62442 4.84908 8.00398L4.8435 7.87184L1.72696 5.45151L1.62499 5.50001C0.949183 6.85171 0.561401 8.36961 0.561401 9.97612C0.561401 11.5826 0.949183 13.1004 1.62499 14.4521L4.86015 11.9483Z" fill="#FBBC05"/>
<path d="M10.5328 3.86029C12.4052 3.86029 13.6682 4.66908 14.3884 5.34497L17.2026 2.59727C15.4742 0.990767 13.2251 0.00469971 10.5328 0.00469971C6.63286 0.00469971 3.26473 2.24271 1.625 5.50002L4.84908 8.00399C5.65795 5.59977 7.89596 3.86029 10.5328 3.86029Z" fill="#EB4335"/>
</svg>
