<svg width="20" height="21" viewBox="0 0 20 21" fill="none" xmlns="http://www.w3.org/2000/svg">
<path d="M4.45579 1.70345C4.50713 1.65445 4.5608 1.60778 4.61913 1.56578C6.18721 0.548394 7.99564 0.00469971 10.0024 0.00469971C11.8785 0.00469971 13.6379 0.525059 15.136 1.42577C15.2457 1.48877 15.5443 1.69412 15.696 1.87846C14.247 0.28238 9.99074 3.71022 9.99074 3.71022C8.52066 2.57383 7.16493 1.80146 6.15921 1.52378C5.3145 1.29276 4.73347 1.48644 4.45579 1.70345ZM17.3341 3.21086C17.2921 3.16186 17.2431 3.11752 17.1988 3.06619C16.8347 2.66483 16.3844 2.56916 15.9784 2.5925C15.6074 2.7115 13.9016 3.3252 11.7992 5.31097C11.7992 5.31097 14.1653 7.61175 15.6167 9.9662C17.0658 12.3183 17.9315 14.1687 17.3994 16.7332C19.0749 14.8921 20.0036 12.4933 19.9989 10.0035C19.9989 7.38307 18.9909 4.99362 17.3341 3.21086ZM13.7219 10.9696C12.8002 9.9382 11.8458 8.93481 10.8634 7.96176C10.5881 7.68875 10.2964 7.40174 9.9884 7.10539C9.9884 7.10539 9.52638 7.56741 8.92902 8.17411V8.17177C8.16131 8.94881 7.16493 9.9592 6.6119 10.5519C5.62719 11.6019 2.80604 14.8991 2.6497 16.7495C2.6497 16.7495 2.02201 15.2841 3.39874 11.9006C4.29712 9.68618 7.01559 6.36802 8.14965 5.2853C8.14965 5.2853 7.11126 4.14657 5.81153 3.35787L5.80219 3.35553C5.80219 3.35553 5.78586 3.34387 5.76719 3.3322C5.14183 2.95885 4.45579 2.6695 3.80009 2.62983C3.13039 2.67883 2.70337 3.17119 2.70337 3.17119C0.964952 5.01695 -0.00342941 7.46474 0.00123749 10.0059C0.00123749 15.5291 4.4768 20.0047 10.0024 20.0047C12.9332 20.0047 15.5677 18.7423 17.3994 16.7309C17.3994 16.7285 17.1894 15.4101 15.8454 13.5177C15.5257 13.0767 14.373 11.6953 13.7219 10.9696Z" fill="white"/>
</svg>
